<svg preserveAspectRatio="none" width="100%" height="100%" overflow="visible" style="display: block;" viewBox="0 0 19.7546 19.7546" fill="none" xmlns="http://www.w3.org/2000/svg">
<g id="boxicons:pencil-filled">
<path id="Vector" d="M2.78211 13.1286C2.6751 13.2356 2.60102 13.3673 2.5681 13.5072L1.67914 17.0795C1.60506 17.3593 1.68737 17.6557 1.89315 17.8614C2.04954 18.0178 2.26355 18.1001 2.47756 18.1001C2.5434 18.1001 2.60925 18.1001 2.6751 18.0754L6.24739 17.1783C6.39555 17.1453 6.52725 17.0713 6.62602 16.9643L14.9806 8.60971L11.1367 4.76579L2.78211 13.1286ZM16.1905 2.14831C15.5238 1.48159 14.4291 1.48159 13.7624 2.14831L12.2972 3.61344L16.1411 7.45736L17.6063 5.99223C18.273 5.32551 18.273 4.23901 17.6063 3.56406L16.1905 2.14831Z" fill="var(--fill-0, black)"/>
</g>
</svg>
