<svg preserveAspectRatio="none" width="100%" height="100%" overflow="visible" style="display: block;" viewBox="0 0 59 69.3125" fill="none" xmlns="http://www.w3.org/2000/svg">
<g id="Group 38">
<path id="Vector" d="M29.5 1C45.2634 1 58 14.149 58 30.3018C58 42.292 52.1723 51.7596 45.9893 58.1182C43.2467 60.946 40.1781 63.4182 36.8506 65.4785L36.8438 65.4834C35.4502 66.3302 34.1281 67.0096 32.957 67.4795L32.958 67.4805C31.882 67.9201 30.639 68.3125 29.5 68.3125C28.361 68.3125 27.118 67.9201 26.042 67.4805L26.0332 67.4766C24.6918 66.9135 23.3938 66.2463 22.1514 65.4805L22.1494 65.4785C18.8219 63.4182 15.7523 60.9469 13.0098 58.1191V58.1182C6.82693 51.7596 1.00004 42.2917 1 30.3018V30.3008L1.00879 29.5742C1.19389 22.0739 4.16974 14.9166 9.34375 9.5918C14.6856 4.09421 21.9347 0.999999 29.5 1Z" fill="var(--fill-0, #CF3939)" stroke="var(--stroke-0, white)" stroke-width="2"/>
<path id="Vector_2" d="M20.5801 20.9062H15.75V48.4062H20.0469V40.0111H43.25L40.0308 30.4587L43.25 20.9062H20.5801Z" fill="var(--fill-0, white)"/>
</g>
</svg>
