<svg preserveAspectRatio="none" width="100%" height="100%" overflow="visible" style="display: block;" viewBox="0 0 35 35" fill="none" xmlns="http://www.w3.org/2000/svg">
<g id="rotate">
<circle id="Ellipse 20" cx="17.5" cy="17.5" r="17.5" fill="var(--fill-0, black)" fill-opacity="0.2"/>
<path id="Vector" d="M25.0031 16.0002H25.25C25.6656 16.0002 26 15.6659 26 15.2502V10.7502C26 10.4471 25.8188 10.1721 25.5375 10.0565C25.2563 9.94087 24.9344 10.0065 24.7188 10.219L23.1031 11.8377C21.7187 10.6909 19.9375 10.0002 18 10.0002C13.9688 10.0002 10.6344 12.9815 10.0812 16.8596C10.0031 17.4065 10.3812 17.9127 10.9281 17.9909C11.475 18.069 11.9812 17.6877 12.0594 17.144C12.475 14.2346 14.9781 12.0002 18 12.0002C19.3875 12.0002 20.6625 12.469 21.6781 13.2596L20.2188 14.719C20.0031 14.9346 19.9406 15.2565 20.0562 15.5377C20.1719 15.819 20.4469 16.0002 20.75 16.0002H25.0031ZM25.9219 19.1409C26 18.594 25.6188 18.0877 25.075 18.0096C24.5313 17.9315 24.0219 18.3127 23.9438 18.8565C23.5281 21.7627 21.025 23.9971 18.0031 23.9971C16.6156 23.9971 15.3406 23.5284 14.325 22.7377L15.7812 21.2815C15.9969 21.0659 16.0594 20.744 15.9437 20.4627C15.8281 20.1815 15.5531 20.0002 15.25 20.0002H10.75C10.3344 20.0002 10 20.3346 10 20.7502V25.2502C10 25.5534 10.1813 25.8284 10.4625 25.944C10.7438 26.0596 11.0656 25.994 11.2812 25.7815L12.9 24.1627C14.2813 25.3096 16.0625 26.0002 18 26.0002C22.0312 26.0002 25.3656 23.019 25.9188 19.1409H25.9219Z" fill="var(--fill-0, black)"/>
</g>
</svg>
